<?xml version="1.0" standalone="no"?>
<!DOCTYPE svg PUBLIC "-//W3C//DTD SVG 20010904//EN"
 "http://www.w3.org/TR/2001/REC-SVG-20010904/DTD/svg10.dtd">
<svg version="1.0" xmlns="http://www.w3.org/2000/svg"
 width="260.000000pt" height="260.000000pt" viewBox="0 0 260.000000 260.000000"
 preserveAspectRatio="xMidYMid meet">
<metadata>
Created by potrace 1.11, written by Peter Selinger 2001-2013
</metadata>
<g transform="translate(0.000000,260.000000) scale(0.100000,-0.100000)"
fill="#000000" stroke="none">
<path d="M1170 2513 c-27 -3 -135 -23 -160 -28 -34 -8 -148 -48 -184 -66 -22
-10 -46 -19 -53 -19 -7 0 -13 -3 -13 -8 0 -4 -15 -13 -32 -21 -86 -37 -286
-203 -361 -299 -122 -158 -201 -326 -243 -519 -22 -105 -27 -326 -9 -423 24
-125 25 -130 54 -214 39 -111 122 -267 168 -314 7 -7 13 -18 13 -23 0 -21 202
-209 281 -262 152 -101 327 -169 497 -194 63 -10 306 -9 362 0 61 11 228 56
249 68 19 11 74 31 80 29 2 -1 7 2 10 7 3 4 29 19 56 33 28 13 52 27 55 30 3
3 32 23 65 45 87 58 232 207 297 305 55 82 125 220 133 259 2 11 8 28 13 38
10 20 31 100 39 148 3 17 9 50 13 75 14 69 5 310 -14 395 -17 80 -23 99 -42
150 -4 11 -8 27 -10 36 -6 31 -88 184 -136 255 -71 105 -195 232 -288 294 -12
8 -28 21 -36 28 -25 24 -201 111 -277 136 -129 43 -214 57 -362 60 -77 2 -151
1 -165 -1z"/>
</g>
</svg>
